<?xml version="1.0" encoding="utf-8"?>
<svg version="1.1" id="Layer_1" xmlns="http://www.w3.org/2000/svg" xmlns:xlink="http://www.w3.org/1999/xlink" x="0px" y="0px"
	 viewBox="0 0 1292 440" style="enable-background:new 0 0 1292 440;" xml:space="preserve">
<style type="text/css">
	.st0{fill:#515050;}
	.st1{fill:#EFEFEF;}
	.st2{fill:#F4F4F4;}
	.st3{fill:#EAB85E;}
	.st4{opacity:0.79;}
	.st5{fill:#A1E5E0;}
	.st6{fill:#D3BD62;}
	.st7{fill:none;stroke:#D3BD62;stroke-width:12;}
	.st8{fill:none;stroke:#7D7400;stroke-width:3;}
	.st9{fill:#F4E398;}
	.st10{fill:#D1C046;}
	.st11{opacity:0.61;}
	.st12{fill:#505050;}
	.st13{fill:#BDBDBD;}
	.st14{fill:none;stroke:#7D7400;stroke-width:3;stroke-linecap:round;stroke-dasharray:5.9906,5.9906;}
	.st15{font-family:'Modern-Regular';}
	.st16{font-size:60px;}
	.st17{letter-spacing:3;}
	.st18{fill:#AAA9A9;}
	.st19{font-size:51.4503px;}
</style>
<g>
	<g>
		
			<ellipse transform="matrix(0.9477 -0.319 0.319 0.9477 -45.7959 141.8209)" class="st0" cx="410" cy="210.7" rx="109.9" ry="50.6"/>
		<path d="M514.6,171.5c0.5,1.1,1,2.2,1.4,3.3c4.7,13.5-2.2,29.8-19.3,46c-16.8,15.9-41.5,29.9-69.6,39.4
			c-28.1,9.5-56.3,13.4-79.4,11c-23.6-2.5-39.1-11.2-43.8-24.7c-4.7-13.5,2.2-29.8,19.3-46c16.8-15.9,41.5-29.9,69.6-39.4l0,0
			c28.1-9.5,56.3-13.4,79.4-11C493.8,152.4,508.7,159.9,514.6,171.5z M309.1,248.2c11.7,22.9,62.7,26.9,116.8,8.6
			c56.3-19.1,95-55.2,86.2-80.6c-8.8-25.4-61.8-30.5-118.1-11.5c-56.3,19.1-95,55.2-86.2,80.6C308.2,246.3,308.6,247.2,309.1,248.2z
			"/>
	</g>
	<g>
		
			<ellipse transform="matrix(0.2744 -0.9616 0.9616 0.2744 -229.3695 323.4333)" class="st0" cx="99.6" cy="313.7" rx="109.9" ry="50.6"/>
		<path d="M42,378.7c-3.5-23-0.9-51.3,7.3-79.8l0,0c8.2-28.5,21-53.8,36.1-71.3c15.4-17.8,31.4-25.5,45.1-21.4
			c13.7,4,23.1,19.1,26.7,42.6c3.5,23,0.9,51.3-7.3,79.8c-8.2,28.5-21,53.8-36.1,71.3c-15.4,17.8-31.4,25.5-45.1,21.4
			c-1.2-0.3-2.3-0.8-3.4-1.3C53.5,414.6,45.3,400.1,42,378.7z M129.4,210.1c-25.8-7.6-60.1,32.7-76.5,89.9
			c-16.4,57.1-8.8,109.8,17,117.4c25.8,7.6,60.1-32.7,76.5-89.9c15.8-54.9,9.4-105.7-14-116.3C131.4,210.7,130.4,210.4,129.4,210.1z
			"/>
	</g>
	<g>
		
			<ellipse transform="matrix(0.8463 -0.5328 0.5328 0.8463 -2.2292 135.4326)" class="st0" cx="233.5" cy="71.6" rx="32.7" ry="47.3"/>
		<path d="M245.7,117.2c-14.4,0-30.8-10.1-41.5-27.1c-14.5-23-13.1-50,3.1-60.1c16.2-10.2,41.1,0.3,55.5,23.2
			c14.5,23,13.1,50-3.1,60.1C255.6,115.9,250.8,117.2,245.7,117.2z M221.5,29.8c-4.4,0-8.5,1.1-12.1,3.4c-14.4,9-15.2,33.6-1.9,54.8
			c13.3,21.2,35.9,31.1,50.2,22c14.4-9,15.2-33.6,1.9-54.8C249.6,39.3,234.5,29.8,221.5,29.8z"/>
	</g>
	<g>
		<ellipse class="st0" cx="237.9" cy="306.3" rx="166.8" ry="217.7"/>
		<path d="M237.9,526.3c-45.3,0-87.8-23-119.7-64.7c-31.8-41.5-49.3-96.7-49.3-155.3c0-58.6,17.5-113.8,49.3-155.3
			c31.9-41.7,74.5-64.7,119.7-64.7s87.8,23,119.7,64.7c31.8,41.5,49.3,96.7,49.3,155.3s-17.5,113.8-49.3,155.3
			C325.7,503.3,283.2,526.3,237.9,526.3z M237.9,90.8c-90.7,0-164.5,96.7-164.5,215.5s73.8,215.5,164.5,215.5
			c90.7,0,164.5-96.7,164.5-215.5S328.6,90.8,237.9,90.8z"/>
	</g>
	<ellipse class="st1" cx="237.9" cy="382" rx="136" ry="139.7"/>
	<g>
		<g>
			<g>
				<ellipse class="st2" cx="290.1" cy="169.2" rx="22.1" ry="21.5"/>
				<path d="M290.1,192.4c-13.1,0-23.8-10.4-23.8-23.1c0-12.8,10.7-23.1,23.8-23.1c13.1,0,23.8,10.4,23.8,23.1
					C313.9,182,303.2,192.4,290.1,192.4z M290.1,149.4c-11.3,0-20.4,8.9-20.4,19.8s9.2,19.8,20.4,19.8c11.3,0,20.4-8.9,20.4-19.8
					S301.4,149.4,290.1,149.4z"/>
			</g>
		</g>
		<ellipse cx="290.1" cy="169.2" rx="12.6" ry="12.3"/>
	</g>
	<g>
		<g>
			<g>
				<ellipse class="st2" cx="181.1" cy="168" rx="22.1" ry="21.5"/>
				<path d="M181.1,191.1c-13.1,0-23.8-10.4-23.8-23.1c0-12.8,10.7-23.1,23.8-23.1c13.1,0,23.8,10.4,23.8,23.1
					C204.9,180.8,194.2,191.1,181.1,191.1z M181.1,148.2c-11.3,0-20.4,8.9-20.4,19.8s9.2,19.8,20.4,19.8s20.4-8.9,20.4-19.8
					S192.4,148.2,181.1,148.2z"/>
			</g>
		</g>
		<ellipse cx="181.1" cy="168" rx="12.6" ry="12.3"/>
	</g>
	<g>
		<path class="st3" d="M182.7,199.4c-2.2-0.5-3.1-3.3-1.6-5c6.5-7.3,24-22.4,56.4-23c33.5-0.6,46.4,16.6,50.4,24.1
			c0.9,1.8-0.1,3.9-2,4.4C273.7,202.9,231.6,211.2,182.7,199.4z"/>
		<path d="M235.2,207.2c-15.7,0-33.8-1.5-52.9-6.2l0,0c-1.6-0.4-2.9-1.6-3.4-3.2s-0.1-3.3,1-4.6c6.2-6.9,24.1-22.9,57.6-23.5
			c34.3-0.7,47.8,17.3,51.9,25c0.7,1.3,0.7,2.8,0.1,4.1c-0.6,1.4-1.8,2.3-3.2,2.7C279,203.3,260.1,207.2,235.2,207.2z M239.3,173.1
			c-0.6,0-1.2,0-1.8,0c-32.2,0.6-49.3,15.9-55.2,22.4c-0.5,0.5-0.4,1.1-0.3,1.3c0.1,0.2,0.3,0.8,1,0.9l0,0
			c48.7,11.7,90.7,3.3,102.4,0.5c0.4-0.1,0.8-0.4,1-0.8c0.1-0.2,0.2-0.7,0-1.2C282.6,189.2,270.6,173.1,239.3,173.1z"/>
	</g>
	<g class="st4">
		<circle class="st5" cx="290.1" cy="169.2" r="26.6"/>
	</g>
	<path d="M316.8,183.4c-1.8,0-3.3-1.5-3.3-3.3v-21.5c0-1.8,1.5-3.3,3.3-3.3s3.3,1.5,3.3,3.3v21.5
		C320.1,181.9,318.6,183.4,316.8,183.4z"/>
	<path d="M402.4,337.5c-0.3,0-0.6,0-0.8-0.1c0,0-3.6-1.3-13.3-4.2c-19.3-6-17-31.3-14.7-58.1c1.6-18.3,3.3-37.3-1.3-52
		c-11-35.2-56-51.4-56.5-51.5c-1.3-0.5-2-1.9-1.5-3.2c0.5-1.3,1.9-2,3.2-1.5c1.9,0.7,47.8,17.1,59.6,54.8c4.9,15.6,3.1,35.1,1.5,54
		c-2.3,25.8-4.3,48,11.1,52.8c9.8,2.9,13.3,4.2,13.5,4.2c1.3,0.5,2,1.9,1.5,3.2C404.4,336.9,403.5,337.5,402.4,337.5z"/>
	<g>
		<g>
			<path class="st3" d="M188.6,464.5c0,0,7.8-21.2,22.3-22.3s-12.3,63.5-20,63.5s-31.2-49-23.4-51.2S188.6,464.5,188.6,464.5z"/>
			<path d="M190.8,507c-7.6,0-24.3-33.6-26.1-46.8c-0.6-4.1,0.2-6.5,2.4-7.1c6.9-2,17.2,5.9,21,9.1c2.3-5.3,9.9-20.4,22.7-21.4
				c1.9-0.1,3.4,0.6,4.4,2.1c5.1,7.9-6.5,38.2-14.1,52.3C194.6,507,191.8,507,190.8,507z M169.5,455.5c-0.6,0-1.2,0.1-1.7,0.2
				c-0.3,0.1-0.9,1.1-0.4,4.1c2,14.5,18.8,44.5,23.4,44.5c0.6,0,3.2-1.9,7.8-10.4c9.5-17.5,18-43.8,14.2-49.5
				c-0.4-0.7-1-0.9-1.9-0.9c-13.4,1-21,21.2-21.1,21.4c-0.2,0.4-0.5,0.7-1,0.8c-0.4,0.1-0.9,0-1.2-0.3
				C184.4,462.5,175.4,455.5,169.5,455.5z"/>
		</g>
		<g>
			<path class="st3" d="M290,463.5c0,0-7.8-21.2-22.3-22.3c-14.5-1.1,12.3,63.5,20,63.5c7.8,0,31.2-49,23.4-51.2
				S290,463.5,290,463.5z"/>
			<path d="M287.8,506.1c-0.9,0-3.8,0-10.2-11.8c-7.6-14.1-19.2-44.4-14.1-52.3c1-1.5,2.5-2.2,4.4-2.1c12.8,1,20.4,16.1,22.7,21.4
				c3.8-3.2,14.1-11,21-9.1c2.1,0.6,2.9,3,2.4,7.1C312.1,472.5,295.4,506.1,287.8,506.1z M267.4,442.6c-0.7,0-1.2,0.3-1.6,0.9
				c-3.7,5.7,4.7,32,14.2,49.5c4.6,8.5,7.2,10.4,7.8,10.4c4.7,0,21.4-30,23.4-44.5c0.4-3-0.1-4-0.4-4.1c-5.8-1.7-16.3,6.5-19.9,9.7
				c-0.3,0.3-0.8,0.4-1.2,0.3c-0.4-0.1-0.8-0.4-0.9-0.8c-0.1-0.2-7.7-20.4-21.1-21.4C267.6,442.6,267.5,442.6,267.4,442.6z"/>
		</g>
	</g>
	<g>
		<g>
			<circle class="st6" cx="817" cy="248" r="122"/>
			<circle class="st7" cx="817" cy="248" r="122"/>
			<circle class="st8" cx="817" cy="248" r="122"/>
		</g>
		<circle class="st9" cx="817" cy="191" r="42"/>
		<path class="st10" d="M884.3,256c-2.6-9.1-6.5-17.2-11.2-23.2c-2.9-10.6-7.6-20.4-13.9-28.6c-8.3-10.8-18.6-18-29.8-21
			c0.5-4-0.6-8.8-3.4-13.2c-5.1-8-13.8-11.7-19.4-8.1c-5.7,3.6-6.1,13-1.1,21.1c0,0.1,0.1,0.1,0.1,0.2
			c-11.4,2.9-21.9,10.2-30.3,21.2c-6.7,8.7-11.6,19.2-14.4,30.6c-4,5.8-7.4,13.1-9.7,21.2c-2.9,10-3.8,19.9-2.6,27.9
			c1.1,7.5,4,12.6,8.2,14.5c0.4,0.2,0.8,0.3,1.2,0.4c2.6,0.8,5.3,0.3,8.2-1.2c2.5,5.5,5.5,10.6,9.1,15.3
			c11.2,14.6,26.1,22.6,41.9,22.6s30.7-8,41.9-22.6c3.7-4.8,6.8-10.1,9.3-15.7c3.1,1.9,6.2,2.4,9,1.6c0.4-0.1,0.8-0.3,1.2-0.4
			c4.1-1.9,7-7,8.2-14.5C888.1,275.9,887.2,265.9,884.3,256z"/>
		<g class="st11">
			<g>
				
					<ellipse transform="matrix(0.9616 -0.2744 0.2744 0.9616 -38.3883 247.8019)" class="st12" cx="866.7" cy="261.1" rx="17.7" ry="38.5"/>
				<path d="M878.7,298.4c-0.4,0.2-0.8,0.3-1.2,0.4c-4.8,1.4-10.4-1.3-15.8-7.5c-5.3-6.1-9.8-15-12.6-25c-2.9-10-3.8-19.9-2.6-27.9
					c1.2-8.2,4.6-13.5,9.3-14.9c4.8-1.4,10.4,1.3,15.8,7.5c5.3,6.1,9.8,15,12.6,25l0,0c2.9,10,3.8,19.9,2.6,27.9
					C885.7,291.4,882.8,296.5,878.7,298.4z M855.2,225.2c-8.2,3.7-10.4,21.5-4.9,40.7c5.7,20,17.8,34.1,26.8,31.5
					c9-2.7,11.7-21.1,5.9-41.1c-5.7-20-17.8-34.1-26.8-31.5C855.9,225,855.6,225.1,855.2,225.2z"/>
			</g>
			<g>
				
					<ellipse transform="matrix(0.2744 -0.9616 0.9616 0.2744 306.8024 928.8503)" class="st12" cx="768.9" cy="261.1" rx="38.5" ry="17.7"/>
				<path d="M748.7,283.9c-1.2-8-0.3-18,2.6-27.9l0,0c2.9-10,7.4-18.9,12.6-25c5.4-6.2,11-8.9,15.8-7.5c4.8,1.4,8.1,6.7,9.3,14.9
					c1.2,8,0.3,18-2.6,27.9c-2.9,10-7.4,18.9-12.6,25c-5.4,6.2-11,8.9-15.8,7.5c-0.4-0.1-0.8-0.3-1.2-0.4
					C752.7,296.5,749.8,291.4,748.7,283.9z M779.3,224.9c-9-2.7-21,11.5-26.8,31.5c-5.7,20-3.1,38.4,5.9,41.1
					c9,2.7,21-11.5,26.8-31.5c5.5-19.2,3.3-37-4.9-40.7C780,225.1,779.6,225,779.3,224.9z"/>
			</g>
			<g>
				
					<ellipse transform="matrix(0.8463 -0.5328 0.5328 0.8463 31.4531 461.7272)" class="st12" cx="815.8" cy="176.4" rx="11.4" ry="16.6"/>
				<path d="M820,192.3c-5,0-10.8-3.5-14.5-9.5c-5.1-8-4.6-17.5,1.1-21.1c5.7-3.6,14.4,0.1,19.4,8.1c5.1,8,4.6,17.5-1.1,21.1
					C823.5,191.9,821.8,192.3,820,192.3z M811.5,161.7c-1.5,0-3,0.4-4.2,1.2c-5,3.2-5.3,11.8-0.6,19.2c4.7,7.4,12.6,10.9,17.6,7.7
					c5-3.2,5.3-11.8,0.6-19.2C821.4,165.1,816.1,161.7,811.5,161.7z"/>
			</g>
			<g>
				<ellipse class="st12" cx="817.3" cy="258.5" rx="58.4" ry="76.2"/>
				<path d="M817.3,335.6c-15.8,0-30.7-8-41.9-22.6c-11.1-14.5-17.3-33.8-17.3-54.4c0-20.5,6.1-39.8,17.3-54.4
					c11.2-14.6,26.1-22.6,41.9-22.6s30.7,8,41.9,22.6c11.1,14.5,17.3,33.8,17.3,54.4s-6.1,39.8-17.3,54.4
					C848,327.5,833.1,335.6,817.3,335.6z M817.3,183.1c-31.8,0-57.6,33.8-57.6,75.4s25.8,75.4,57.6,75.4c31.8,0,57.6-33.8,57.6-75.4
					S849,183.1,817.3,183.1z"/>
			</g>
			<ellipse class="st1" cx="817.3" cy="283.9" rx="49.4" ry="47.8"/>
			<g>
				<g>
					<g>
						<ellipse class="st2" cx="835.6" cy="210.6" rx="7.7" ry="7.5"/>
						<path d="M835.6,218.6c-4.5,0-8.2-3.6-8.2-8c0-4.4,3.7-8,8.2-8s8.2,3.6,8.2,8C843.8,215,840.1,218.6,835.6,218.6z M835.6,203.5
							c-4,0-7.2,3.1-7.2,7s3.2,7,7.2,7s7.2-3.1,7.2-7S839.6,203.5,835.6,203.5z"/>
					</g>
				</g>
				<ellipse cx="835.6" cy="210.6" rx="4.4" ry="4.3"/>
			</g>
			<g>
				<g>
					<g>
						<ellipse class="st2" cx="797.4" cy="210.1" rx="7.7" ry="7.5"/>
						<path d="M797.4,218.1c-4.5,0-8.2-3.6-8.2-8s3.7-8,8.2-8s8.2,3.6,8.2,8S801.9,218.1,797.4,218.1z M797.4,203.1
							c-4,0-7.2,3.1-7.2,7s3.2,7,7.2,7s7.2-3.1,7.2-7S801.4,203.1,797.4,203.1z"/>
					</g>
				</g>
				<ellipse cx="797.4" cy="210.1" rx="4.4" ry="4.3"/>
			</g>
			<g>
				<path class="st13" d="M788.9,307.4c0,0,2.7-7.4,7.8-7.8c5.1-0.4-4.3,22.2-7,22.2s-10.9-17.2-8.2-17.9
					C784.2,303.1,788.9,307.4,788.9,307.4z"/>
				<path d="M789.7,322.3c-2.6,0-8.5-11.8-9.1-16.4c-0.2-1.4,0.1-2.3,0.8-2.5c2.4-0.7,6,2.1,7.4,3.2c0.8-1.9,3.5-7.1,8-7.5
					c0.7-0.1,1.2,0.2,1.5,0.7c1.8,2.8-2.3,13.4-4.9,18.3C791,322.3,790,322.3,789.7,322.3z M782.2,304.3c-0.2,0-0.4,0-0.6,0.1
					c-0.1,0-0.3,0.4-0.2,1.4c0.7,5.1,6.6,15.6,8.2,15.6c0.2,0,1.1-0.7,2.7-3.6c3.3-6.1,6.3-15.3,5-17.3c-0.2-0.2-0.4-0.3-0.7-0.3
					c-4.7,0.4-7.4,7.4-7.4,7.5c-0.1,0.1-0.2,0.3-0.3,0.3c-0.2,0-0.3,0-0.4-0.1C787.4,306.7,784.3,304.3,782.2,304.3z"/>
			</g>
			<g>
				<path class="st13" d="M844.1,305.4c0,0-2.7-7.4-7.8-7.8c-5.1-0.4,4.3,22.2,7,22.2s10.9-17.2,8.2-17.9
					C848.8,301.1,844.1,305.4,844.1,305.4z"/>
				<path d="M843.3,320.3c-0.3,0-1.3,0-3.6-4.1c-2.7-4.9-6.7-15.5-4.9-18.3c0.3-0.5,0.9-0.8,1.5-0.7c4.5,0.3,7.1,5.6,8,7.5
					c1.3-1.1,4.9-3.9,7.4-3.2c0.8,0.2,1,1.1,0.8,2.5C851.8,308.6,846,320.3,843.3,320.3z M836.2,298.1c-0.3,0-0.4,0.1-0.6,0.3
					c-1.3,2,1.7,11.2,5,17.3c1.6,3,2.5,3.6,2.7,3.6c1.6,0,7.5-10.5,8.2-15.6c0.1-1.1,0-1.4-0.2-1.4c-2-0.6-5.7,2.3-7,3.4
					c-0.1,0.1-0.3,0.1-0.4,0.1c-0.2,0-0.3-0.1-0.3-0.3C843.6,305.5,841,298.4,836.2,298.1C836.2,298.1,836.2,298.1,836.2,298.1z"/>
			</g>
			<g>
				<path class="st13" d="M797.9,221.1c-0.8-0.2-1.1-1.2-0.5-1.8c2.3-2.5,8.4-7.8,19.7-8c11.7-0.2,16.2,5.8,17.6,8.4
					c0.3,0.6,0,1.4-0.7,1.5C829.8,222.3,815.1,225.3,797.9,221.1z"/>
				<path d="M816.3,223.8c-5.5,0-11.8-0.5-18.5-2.2l0,0c-0.5-0.1-1-0.5-1.1-1.1c-0.2-0.5,0-1.1,0.3-1.5c2.2-2.4,8.4-8,20.1-8.2
					c0.2,0,0.4,0,0.6,0c11.5,0,16,6.1,17.4,8.7c0.2,0.4,0.2,0.9,0,1.4c-0.2,0.5-0.6,0.8-1.1,0.9C831.6,222.4,825,223.8,816.3,223.8z
					 M817.8,211.8c-0.2,0-0.4,0-0.6,0c-11.3,0.2-17.3,5.6-19.4,7.9c-0.2,0.2-0.1,0.5-0.1,0.6c0,0.1,0.1,0.3,0.4,0.4l0,0
					c17.1,4.1,31.8,1.2,35.9,0.2c0.2,0,0.3-0.2,0.4-0.3c0.1-0.2,0.1-0.3,0-0.5C833,217.5,828.8,211.8,817.8,211.8z"/>
			</g>
		</g>
		<g>
			<circle class="st14" cx="817" cy="248" r="112.5"/>
		</g>
	</g>
	<text transform="matrix(1 0 0 1 547.8779 99)" class="st15 st16 st17">BOTTOM PENGUIN </text>
</g>
<text transform="matrix(1 0 0 1 623 417.9336)" class="st18 st15 st19 st17">Because why not</text>
</svg>
