<?xml version="1.0" encoding="utf-8"?>
<svg version="1.1" id="Layer_1" xmlns="http://www.w3.org/2000/svg" xmlns:xlink="http://www.w3.org/1999/xlink" x="0px" y="0px"
	 viewBox="0 0 1024 1024" style="enable-background:new 0 0 1024 1024;" xml:space="preserve">
<style type="text/css">
	.st0{fill:#F4E398;}
	.st1{opacity:0.61;}
	.st2{fill:#505050;}
	.st3{fill:#EFEFEF;}
	.st4{fill:#F4F4F4;}
	.st5{fill:#BDBDBD;}
</style>
<circle class="st0" cx="508.5" cy="236" r="227"/>
<g class="st1">
	<g>
		
			<ellipse transform="matrix(0.9616 -0.2744 0.2744 0.9616 -138.9402 236.7803)" class="st2" cx="777" cy="615.1" rx="95.7" ry="207.9"/>
		<path d="M841.8,816.3c-2.1,0.9-4.2,1.7-6.4,2.4c-25.8,7.6-56.1-6.8-85.3-40.6c-28.6-33.1-52.8-81-68.3-135
			c-15.5-54-20.4-107.6-13.8-151c6.7-44.3,24.7-73,50.5-80.6c25.8-7.6,56.1,6.8,85.3,40.6c28.6,33.1,52.8,81,68.3,135l0,0
			c15.5,54,20.4,107.6,13.8,151C879.8,778.7,864.3,806.1,841.8,816.3z M715.1,421.1c-44.3,20.1-56.4,116.2-26.6,220.1
			c31.1,108.1,96,184.4,144.8,170.1c48.8-14.3,63.2-114,32.1-222.2c-31.1-108.1-96-184.4-144.8-170.1
			C718.8,419.5,716.9,420.2,715.1,421.1z"/>
	</g>
	<g>
		
			<ellipse transform="matrix(0.2744 -0.9616 0.9616 0.2744 -411.2978 685.1232)" class="st2" cx="248.3" cy="615.1" rx="207.9" ry="95.7"/>
		<path d="M139.3,738.1c-6.6-43.4-1.7-97.1,13.8-151l0,0c15.5-54,39.8-101.9,68.3-135c29.2-33.8,59.5-48.2,85.3-40.6
			c25.8,7.6,43.8,36.2,50.5,80.6c6.6,43.4,1.7,97.1-13.8,151c-15.5,54-39.8,101.9-68.3,135c-29.2,33.8-59.5,48.2-85.3,40.6
			c-2.2-0.6-4.3-1.4-6.4-2.4C161.1,806.1,145.5,778.7,139.3,738.1z M304.6,419c-48.8-14.4-113.7,61.9-144.8,170.1
			c-31.1,108.1-16.7,207.8,32.1,222.2c48.8,14.4,113.7-61.9,144.8-170.1c29.8-103.9,17.7-200-26.6-220.1
			C308.4,420.2,306.6,419.5,304.6,419z"/>
	</g>
	<g>
		
			<ellipse transform="matrix(0.8463 -0.5328 0.5328 0.8463 -6.4565 291.4434)" class="st2" cx="501.7" cy="156.9" rx="61.9" ry="89.6"/>
		<path d="M524.8,243.2c-27.2,0-58.3-19.2-78.5-51.3c-27.4-43.5-24.8-94.5,5.8-113.8c30.6-19.2,77.7,0.5,105.1,44
			c27.4,43.5,24.8,94.5-5.8,113.8C543.5,240.8,534.4,243.2,524.8,243.2z M478.9,77.8c-8.3,0-16.1,2-22.9,6.3
			c-27.2,17.1-28.8,63.7-3.5,103.8c25.2,40.1,67.9,58.8,95.1,41.7c27.2-17.1,28.8-63.7,3.5-103.8C532.2,95.9,503.5,77.8,478.9,77.8z
			"/>
	</g>
	<g>
		<ellipse class="st2" cx="510" cy="601.1" rx="315.6" ry="412"/>
		<path d="M510,1017.3c-85.7,0-166.1-43.5-226.6-122.3c-60.2-78.6-93.3-182.9-93.3-293.9c0-111,33.1-215.4,93.3-293.9
			c60.4-78.9,140.9-122.3,226.6-122.3s166.1,43.5,226.6,122.3c60.2,78.6,93.3,182.9,93.3,293.9S796.7,816.4,736.6,895
			C676.1,973.9,595.7,1017.3,510,1017.3z M510,193.3c-171.7,0-311.4,182.9-311.4,407.8s139.7,407.8,311.4,407.8
			c171.7,0,311.4-182.9,311.4-407.8S681.7,193.3,510,193.3z"/>
	</g>
	<ellipse class="st3" cx="510" cy="745.1" rx="260.4" ry="265.1"/>
	<g>
		<g>
			<g>
				<ellipse class="st4" cx="608.9" cy="341.7" rx="41.8" ry="40.6"/>
				<path d="M608.9,385c-24.5,0-44.5-19.4-44.5-43.3c0-23.9,20-43.3,44.5-43.3s44.5,19.4,44.5,43.3C653.4,365.6,633.4,385,608.9,385
					z M608.9,303.8c-21.6,0-39.1,17-39.1,37.9s17.5,37.9,39.1,37.9s39.1-17,39.1-37.9S630.4,303.8,608.9,303.8z"/>
			</g>
		</g>
		<ellipse cx="608.9" cy="341.7" rx="23.9" ry="23.2"/>
	</g>
	<g>
		<g>
			<g>
				<ellipse class="st4" cx="402.5" cy="339.4" rx="41.8" ry="40.6"/>
				<path d="M402.5,382.7c-24.5,0-44.5-19.4-44.5-43.3s20-43.3,44.5-43.3s44.5,19.4,44.5,43.3S427.1,382.7,402.5,382.7z
					 M402.5,301.4c-21.6,0-39.1,17-39.1,37.9c0,20.9,17.5,37.9,39.1,37.9c21.6,0,39.1-17,39.1-37.9
					C441.6,318.5,424.1,301.4,402.5,301.4z"/>
			</g>
		</g>
		<ellipse cx="402.5" cy="339.4" rx="23.9" ry="23.2"/>
	</g>
	<g>
		<path class="st5" d="M356.6,865.2c0,0,14.8-40,42.2-42.2c27.4-2.1-23.2,120.1-37.9,120.1s-59-92.7-44.3-97
			S356.6,865.2,356.6,865.2z"/>
		<path d="M360.8,945.8c-14.3,0-45.9-63.5-49.4-88.5c-1.1-7.8,0.4-12.3,4.5-13.4c13.1-3.7,32.6,11.1,39.7,17.2
			c4.4-10,18.8-38.6,43-40.4c3.6-0.3,6.5,1.1,8.3,4c9.7,14.9-12.3,72.4-26.7,99C368,945.8,362.6,945.8,360.8,945.8z M320.5,848.3
			c-1.1,0-2.2,0.1-3.2,0.4c-0.6,0.2-1.6,2-0.8,7.8c3.8,27.4,35.5,84.1,44.4,84.1c1.1,0,6.1-3.5,14.8-19.7c18-33.1,34-82.9,26.9-93.7
			c-0.8-1.3-1.9-1.8-3.6-1.6c-25.4,2-39.8,40.1-40,40.5c-0.3,0.8-1,1.4-1.8,1.6c-0.8,0.2-1.7,0-2.3-0.6
			C348.8,861.5,331.7,848.3,320.5,848.3z"/>
	</g>
	<g>
		<path class="st5" d="M654.9,854.4c0,0-14.8-40-42.2-42.2s23.2,120.1,37.9,120.1s59-92.7,44.3-97S654.9,854.4,654.9,854.4z"/>
		<path d="M650.7,934.9c-1.8,0-7.2,0-19.3-22.3c-14.5-26.6-36.4-84-26.7-99c1.9-2.9,4.7-4.2,8.3-4c24.2,1.9,38.6,30.4,43,40.4
			c7.2-6,26.7-20.9,39.7-17.2c4.1,1.2,5.6,5.7,4.5,13.4C696.6,871.4,665,934.9,650.7,934.9z M612,814.8c-1.4,0-2.4,0.5-3.1,1.7
			c-7,10.9,8.9,60.6,26.9,93.7c8.8,16.1,13.7,19.7,14.8,19.7c8.8,0,40.5-56.8,44.4-84.1c0.8-5.8-0.2-7.6-0.8-7.8
			c-11-3.1-30.9,12.2-37.6,18.4c-0.6,0.6-1.5,0.8-2.3,0.6c-0.8-0.2-1.5-0.8-1.8-1.6c-0.1-0.4-14.5-38.5-40-40.5
			C612.4,814.8,612.2,814.8,612,814.8z"/>
	</g>
	<g>
		<path class="st5" d="M405.5,398.8c-4.3-1-5.9-6.3-3-9.5c12.4-13.8,45.3-42.3,106.7-43.5c63.3-1.2,87.7,31.3,95.3,45.6
			c1.8,3.3-0.1,7.4-3.8,8.3C577.7,405.4,498.1,421.1,405.5,398.8z"/>
		<path d="M504.9,413.1c-29.7,0-63.9-2.9-100-11.6l0,0c-2.9-0.7-5.2-2.9-6.1-5.8c-0.9-2.9-0.2-6,1.8-8.2
			c11.6-12.9,45.5-43.2,108.7-44.4c1.2,0,2.3,0,3.5,0c62.3,0,86.7,32.8,94.3,47.1c1.2,2.3,1.3,5,0.3,7.4c-1.1,2.4-3.2,4.2-5.8,4.8
			C587.6,405.7,552,413.1,504.9,413.1z M512.7,348.5c-1.1,0-2.2,0-3.4,0c-61.1,1.2-93.6,30.2-104.8,42.6c-1.1,1.2-0.8,2.5-0.6,3
			c0.2,0.5,0.7,1.7,2.2,2.1l0,0c92.2,22.2,171.8,6.3,194,0.9c1-0.2,1.7-0.9,2.1-1.8c0.4-0.9,0.4-1.8-0.1-2.7
			C595,379.3,572.1,348.5,512.7,348.5z"/>
	</g>
</g>
</svg>
